<svg id="Layer_1" data-name="Layer 1" xmlns="http://www.w3.org/2000/svg" viewBox="0 0 202.41 62.14"><defs><style>.cls-1{fill:#b0a68b;}</style></defs><path class="cls-1" d="M32.94,23.16a9.32,9.32,0,1,0-8.9,0c-3.53,1.11-8.1,4.14-9.41,12.34L8.53,67.79h2.66L13.59,54h30L46,67.79h2.66L42.55,35.5C41.24,27.3,36.56,24.27,32.94,23.16ZM21.43,15A7.06,7.06,0,1,1,28.49,22,7.06,7.06,0,0,1,21.43,15ZM14,51.49l2.78-16s1.52-11,11.63-10.94c10.11-.08,12,10.94,12,10.94l2.78,16Z" transform="translate(-8.53 -5.66)"/><path class="cls-1" d="M92.73,40.93c6-1.19,6.12-9,6.12-9,0-10.74-10.53-10.15-10.53-10.15H65.66l.2,46H88.35s15.39,1.15,15.39-14.2C103.74,44.46,97.31,41.32,92.73,40.93ZM68.12,23.73l18.06,0c2.21,0,10.52-.34,10.52,8.26,0,8.23-9.34,8.32-9.34,8.32l-19.24,0Zm19.61,42H68.13V42.55H88.67s12.8-.51,12.8,11C101.47,66.42,87.73,65.7,87.73,65.7Z" transform="translate(-8.53 -5.66)"/><polygon class="cls-1" points="113.5 62.14 146.9 62.13 146.9 59.82 116.01 59.83 116.01 37.36 142.01 37.36 142.01 34.99 116.01 34.99 116.01 19.41 146.9 19.41 146.9 17 113.5 17 113.5 62.14"/><path class="cls-1" d="M210.93,62V22.74h-2.5v38s.24,4.4-2.49,4.47c-1.89.06-5.06-4.24-5.06-4.24L174,22.74h-3.79V67.8h2.43V25.45l25.88,37s4.31,6.05,8.26,5.29C211.06,66.88,210.93,62,210.93,62Z" transform="translate(-8.53 -5.66)"/></svg>