<svg id="Layer_1" data-name="Layer 1" xmlns="http://www.w3.org/2000/svg" viewBox="0 0 952.83 171.22"><path d="M392.15,37.3A60.32,60.32,0,0,0,368.68,26a123.46,123.46,0,0,0-29.75-3.38H301.76v136.1h37.17a123.46,123.46,0,0,0,29.75-3.38,60.32,60.32,0,0,0,23.47-11.26,52.39,52.39,0,0,0,15.39-20.93q5.54-13.05,5.54-32.57,0-19.34-5.54-32.39A52.46,52.46,0,0,0,392.15,37.3Zm-3.29,81q-4.69,10.23-12.39,15.67a41.4,41.4,0,0,1-17.64,7,129.64,129.64,0,0,1-20.47,1.59H320.91V38.81h17.45a129.64,129.64,0,0,1,20.47,1.59,42.19,42.19,0,0,1,17.64,7q7.69,5.34,12.39,15.67t4.69,27.6Q393.55,108.08,388.86,118.31Z" transform="translate(-22.08 -20.39)"/><path d="M505.81,120.65,506,97q.18-21.78-9.58-31.54T465.64,55.7A51.47,51.47,0,0,0,450.43,58a43.55,43.55,0,0,0-13.14,6.57,35.74,35.74,0,0,0-9.57,10.7,32.57,32.57,0,0,0-4.32,14.46h17.65q.56-9.39,6.57-14.74t17.83-5.35a36.4,36.4,0,0,1,9.2,1.13,18.58,18.58,0,0,1,7.51,3.85,17.91,17.91,0,0,1,5,7.41,33.59,33.59,0,0,1,1.79,11.83v2.81q-15.59,1.69-28.16,4.13a97.65,97.65,0,0,0-21.5,6.48,36.48,36.48,0,0,0-13.79,10.14q-4.89,6.1-4.89,15.11a26.29,26.29,0,0,0,2.73,12.11,26,26,0,0,0,7.51,9,35.67,35.67,0,0,0,11.07,5.63,44.76,44.76,0,0,0,13.42,2q13.51,0,21.68-4.69a34.89,34.89,0,0,0,12.86-12.58c.13,3,.31,5.76.57,8.26s.5,4.69.75,6.57h17.27a122.68,122.68,0,0,1-2.16-16.24Q505.62,133.41,505.81,120.65Zm-15.58-7.13q0,10.14-2.63,16.71a27.07,27.07,0,0,1-7,10.41,24.91,24.91,0,0,1-9.94,5.45,42.69,42.69,0,0,1-11.64,1.59q-9.21,0-14.36-4.41a14.42,14.42,0,0,1-5.17-11.54,12.31,12.31,0,0,1,3.57-8.92,26.36,26.36,0,0,1,10.14-6,96.69,96.69,0,0,1,15.95-3.94q9.39-1.59,21-2.72Z" transform="translate(-22.08 -20.39)"/><path d="M554.24,135.67l-25.72-77.9h-19l36.42,101-.75,2.06a39.49,39.49,0,0,1-3.66,9.3,14.91,14.91,0,0,1-4.41,4.88,13.07,13.07,0,0,1-5.73,2,65.94,65.94,0,0,1-7.41.37h-6.95v14.27h8.82a57.93,57.93,0,0,0,14-1.41,22.13,22.13,0,0,0,9.29-4.69,27,27,0,0,0,6.38-8.73,124.08,124.08,0,0,0,5.45-13.7L597,57.77H579.21Z" transform="translate(-22.08 -20.39)"/><polygon points="620.95 138.37 640.09 138.37 640.09 76.61 705.42 76.61 705.42 60.09 640.09 60.09 640.09 18.79 709.36 18.79 709.36 2.27 620.95 2.27 620.95 138.37"/><path d="M819.11,73A42.46,42.46,0,0,0,804,60.58a46.22,46.22,0,0,0-20.74-4.5,50,50,0,0,0-19.34,3.66,44,44,0,0,0-15.3,10.51,48.89,48.89,0,0,0-10.14,16.52,60.86,60.86,0,0,0-3.66,21.68,67.5,67.5,0,0,0,3.1,20.84,47.43,47.43,0,0,0,9.29,16.7,43,43,0,0,0,15.3,11.17,58,58,0,0,0,38.2,1.51,43.72,43.72,0,0,0,13-6.86,41.35,41.35,0,0,0,9.29-10,40.84,40.84,0,0,0,5.45-12.3H810.85a28.72,28.72,0,0,1-9.39,12.11q-6.19,4.6-18,4.6a30.18,30.18,0,0,1-11.64-2.25,28.56,28.56,0,0,1-16-16.52,36.77,36.77,0,0,1-2.35-13.52h76.4a71.75,71.75,0,0,0-2-22.52A51.32,51.32,0,0,0,819.11,73ZM753.6,99.25q.55-13.69,8.63-21.12t21-7.41a28.69,28.69,0,0,1,12.2,2.44,26.59,26.59,0,0,1,8.82,6.48,28.32,28.32,0,0,1,5.44,9.19,34.15,34.15,0,0,1,2.07,10.42Z" transform="translate(-22.08 -20.39)"/><path d="M910.06,108.92a39.37,39.37,0,0,0-11.27-5.54,140.4,140.4,0,0,0-13.6-3.56L870.92,97q-7.89-1.69-12-4.69t-4.13-9a8.92,8.92,0,0,1,2-5.82,15.59,15.59,0,0,1,5.06-4,24.14,24.14,0,0,1,7-2.25,47.74,47.74,0,0,1,7.89-.66q9.57,0,16,3.85t8.54,12.86h17.83q-2.45-14.46-12.95-22.9t-27.6-8.45a66.45,66.45,0,0,0-16.14,1.88,41.81,41.81,0,0,0-13.05,5.53,28.68,28.68,0,0,0-8.73,8.83,22.25,22.25,0,0,0-3.19,11.92A25.28,25.28,0,0,0,840,96a23.72,23.72,0,0,0,6.76,8,35,35,0,0,0,9.48,5.07,78,78,0,0,0,10.7,3l15,3q4.32.95,8.17,2.16a26.09,26.09,0,0,1,6.76,3.19,15.3,15.3,0,0,1,4.6,4.79,12.55,12.55,0,0,1,1.69,6.57q0,7.14-7,11.07T879,146.74q-11.82,0-18.11-5.44t-8.36-15.2h-18a40,40,0,0,0,3.85,13A35.62,35.62,0,0,0,847,150.31a43.07,43.07,0,0,0,13.52,7.89,51.21,51.21,0,0,0,18.11,3,63.58,63.58,0,0,0,16.62-2.06A40.69,40.69,0,0,0,908.46,153a29.42,29.42,0,0,0,8.83-9.85,27.34,27.34,0,0,0,3.19-13.33,25.16,25.16,0,0,0-2.82-12.39A26.2,26.2,0,0,0,910.06,108.92Z" transform="translate(-22.08 -20.39)"/><path d="M974.92,71.47V57.77H955.77V32.42H938.68V57.77H922.73v13.7h15.95v61.95a65.18,65.18,0,0,0,1,12.86,15.14,15.14,0,0,0,3.66,7.69,14,14,0,0,0,7.23,3.76,55.94,55.94,0,0,0,11.92,1h12.39V144.49h-8.64a23.54,23.54,0,0,1-5.82-.56,5.27,5.27,0,0,1-3.1-2.07,8.75,8.75,0,0,1-1.31-4,60.2,60.2,0,0,1-.28-6.48V71.47Z" transform="translate(-22.08 -20.39)"/><polygon points="155.47 138.37 173.13 138.37 245.68 2.41 228.02 2.41 155.47 138.37"/><path d="M90.92,20.39c-40.67,0-68.84,27.77-68.84,70.4,0,42.05,27.78,70.41,68.84,70.41C131,161.2,159,133,159,90.79S132,20.39,90.92,20.39Zm0,124.6c-29.51,0-49.25-22.33-49.25-54.24,0-31.3,19.15-54.23,49.25-54.23,29.32,0,48.46,22.53,48.46,54.23C139.35,122.06,120.6,145,90.89,145Z" transform="translate(-22.08 -20.39)"/></svg>