<svg width="309" height="309" viewBox="0 0 309 309" fill="none" xmlns="http://www.w3.org/2000/svg">
<rect width="309" height="309" rx="29" fill="#FF6665"/>
<circle cx="154.5" cy="154.5" r="142.5" fill="#F4C46B"/>
<path fill-rule="evenodd" clip-rule="evenodd" d="M160.962 98.6993L100.258 70.4441C96.0678 68.4935 91.0533 70.3867 89.0584 74.6726L45.7124 167.797C43.7175 172.083 45.4975 177.138 49.6881 179.089L110.391 207.344C114.582 209.295 119.596 207.402 121.591 203.116L164.937 109.992C166.932 105.706 165.152 100.65 160.962 98.6993ZM103.871 62.6838C95.4893 58.7826 85.4604 62.5688 81.4705 71.1407L38.1245 164.265C34.1346 172.837 37.6946 182.948 46.076 186.849L106.779 215.104C115.161 219.006 125.189 215.219 129.179 206.648L172.525 113.523C176.515 104.952 172.955 94.8402 164.574 90.9389L103.871 62.6838Z" fill="#9B9CF5"/>
<path d="M94.8402 82.0846C95.8377 79.9417 98.3449 78.9951 100.44 79.9704L153.556 104.694C155.651 105.669 156.541 108.197 155.543 110.34L148.319 125.86C147.322 128.003 144.814 128.95 142.719 127.975L89.6037 103.251C87.5084 102.276 86.6184 99.7483 87.6159 97.6053L94.8402 82.0846Z" fill="#9B9CF5"/>
<path d="M80.3915 113.126C81.389 110.983 83.8962 110.036 85.9916 111.012L93.5795 114.544C95.6748 115.519 96.5648 118.047 95.5673 120.19L91.9552 127.95C90.9577 130.093 88.4505 131.04 86.3551 130.064L78.7672 126.532C76.6719 125.557 75.7819 123.029 76.7794 120.886L80.3915 113.126Z" fill="#9B9CF5"/>
<path d="M69.5551 136.407C70.5525 134.264 73.0597 133.318 75.1551 134.293L82.743 137.825C84.8383 138.8 85.7283 141.328 84.7308 143.471L81.1187 151.231C80.1212 153.374 77.614 154.321 75.5186 153.345L67.9308 149.814C65.8354 148.838 64.9454 146.31 65.9429 144.167L69.5551 136.407Z" fill="#9B9CF5"/>
<path d="M58.7186 159.688C59.716 157.545 62.2232 156.599 64.3186 157.574L71.9065 161.106C74.0018 162.081 74.8918 164.609 73.8943 166.752L70.2822 174.512C69.2847 176.655 66.7775 177.602 64.6822 176.626L57.0943 173.095C54.9989 172.119 54.1089 169.591 55.1064 167.448L58.7186 159.688Z" fill="#9B9CF5"/>
<path d="M103.155 123.722C104.153 121.579 106.66 120.632 108.755 121.607L116.343 125.139C118.438 126.115 119.328 128.643 118.331 130.785L114.719 138.546C113.721 140.689 111.214 141.635 109.119 140.66L101.531 137.128C99.4356 136.153 98.5456 133.625 99.5431 131.482L103.155 123.722Z" fill="#9B9CF5"/>
<path d="M92.3187 147.003C93.3162 144.86 95.8234 143.913 97.9188 144.889L105.507 148.42C107.602 149.396 108.492 151.924 107.495 154.067L103.882 161.827C102.885 163.97 100.378 164.916 98.2823 163.941L90.6944 160.409C88.5991 159.434 87.7091 156.906 88.7066 154.763L92.3187 147.003Z" fill="#9B9CF5"/>
<path d="M81.4822 170.284C82.4797 168.141 84.9869 167.194 87.0823 168.17L94.6702 171.701C96.7655 172.677 97.6555 175.205 96.658 177.348L93.0459 185.108C92.0484 187.251 89.5412 188.197 87.4458 187.222L79.8579 183.69C77.7626 182.715 76.8726 180.187 77.8701 178.044L81.4822 170.284Z" fill="#9B9CF5"/>
<path d="M125.919 134.317C126.916 132.174 129.424 131.228 131.519 132.203L139.107 135.735C141.202 136.71 142.092 139.238 141.095 141.381L137.483 149.142C136.485 151.284 133.978 152.231 131.883 151.256L124.295 147.724C122.199 146.749 121.309 144.221 122.307 142.078L125.919 134.317Z" fill="#9B9CF5"/>
<path d="M115.082 157.598C116.08 155.455 118.587 154.509 120.682 155.484L128.27 159.016C130.366 159.991 131.256 162.519 130.258 164.662L115.81 195.704C114.812 197.847 112.305 198.793 110.21 197.818L102.622 194.286C100.526 193.311 99.6363 190.783 100.634 188.64L115.082 157.598Z" fill="#9B9CF5"/>
<path fill-rule="evenodd" clip-rule="evenodd" d="M203.425 247.126C203.425 247.868 204.387 248.16 204.799 247.542L267.881 152.919C268.213 152.421 267.856 151.753 267.257 151.753H219.733V88.9971C219.733 88.255 218.771 87.9636 218.359 88.5811L155.277 183.204C154.945 183.702 155.302 184.37 155.901 184.37H203.425V247.126Z" fill="#9B9CF5"/>
</svg>
