<svg width="131" height="31" viewBox="0 0 131 31" fill="none" xmlns="http://www.w3.org/2000/svg">
<path d="M35.4155 20.2774H27.0403V19.415H27.2156C27.354 19.415 27.492 19.4018 27.6279 19.3757C27.7689 19.3507 27.9074 19.3126 28.0414 19.2619C28.1634 19.2134 28.2728 19.1378 28.3613 19.0408C28.4497 18.9437 28.5148 18.8278 28.5517 18.7018C28.6384 18.3599 28.6763 18.0074 28.6643 17.6549V10.9364C28.6836 10.4835 28.6069 10.0318 28.4392 9.61071C28.3322 9.39432 28.1679 9.21142 27.9641 9.08189C27.7604 8.95236 27.5251 8.88116 27.2837 8.87603C27.0424 8.8709 26.8042 8.93204 26.5952 9.05281C26.3861 9.17357 26.2142 9.34933 26.0981 9.56098C25.8531 10.0596 25.7319 10.61 25.7447 11.1654V20.2774H18.8574V19.415H19.0341C19.34 19.4247 19.6452 19.3804 19.9357 19.2841C20.0538 19.2375 20.1592 19.1637 20.2433 19.0686C20.3275 18.9736 20.388 18.86 20.4199 18.7371C20.5169 18.3969 20.561 18.0438 20.5508 17.6902C20.5508 17.5367 20.5468 17.3757 20.539 17.2073C20.5298 17.0385 20.5259 16.8684 20.5259 16.6996V12.6062C20.5269 12.3747 20.4974 12.1442 20.4382 11.9204C20.3578 11.6678 20.2136 11.4402 20.0195 11.2596C19.8312 11.0658 19.6193 10.8966 19.3887 10.7558C19.0336 10.5516 18.6781 10.3401 18.3222 10.1211L18.1455 9.99022C18.347 9.92217 18.9311 9.68487 19.8978 9.27832C20.9639 8.8203 21.8607 8.41375 22.5883 8.05867C22.8431 7.92345 23.3665 7.64427 24.1587 7.22115C24.5478 7.00217 24.912 6.7989 25.2514 6.61133V8.82161L25.5314 8.54287C26.0325 8.00694 26.6381 7.57946 27.3109 7.28685C27.9836 6.99424 28.7093 6.84272 29.4429 6.84165C30.5568 6.82505 31.6332 7.24333 32.4436 8.00764C32.8489 8.36285 33.1724 8.80172 33.3918 9.29399C33.6111 9.78627 33.7212 10.3203 33.7143 10.8591V16.6878C33.7143 18.3157 33.9433 19.1812 34.4013 19.2841C34.6709 19.3338 34.951 19.377 35.2389 19.415H35.4168L35.4155 20.2774Z" fill="black"/>
<path d="M51.8384 20.2775H43.4631V19.4151H43.6372C43.7755 19.4151 43.9135 19.402 44.0494 19.3759C44.1896 19.3509 44.3272 19.3127 44.4603 19.262C44.5824 19.2136 44.6918 19.138 44.7802 19.0409C44.8686 18.9439 44.9338 18.8279 44.9707 18.7019C45.0573 18.36 45.0952 18.0076 45.0832 17.655V10.9365C45.1009 10.4833 45.0224 10.0315 44.8529 9.61087C44.7459 9.39448 44.5815 9.21157 44.3778 9.08204C44.1741 8.95251 43.9388 8.88131 43.6974 8.87619C43.456 8.87106 43.2179 8.9322 43.0089 9.05296C42.7998 9.17373 42.6279 9.34949 42.5118 9.56114C42.2668 10.0598 42.1456 10.6101 42.1584 11.1655V20.2775H35.2803V19.4151H35.4569C35.7628 19.4249 36.0681 19.3806 36.3586 19.2843C36.4768 19.2379 36.5824 19.1642 36.6665 19.0691C36.7507 18.974 36.8111 18.8603 36.8428 18.7373C36.9397 18.3971 36.9839 18.044 36.9736 17.6904C36.9736 17.5368 36.9697 17.3759 36.9618 17.2075C36.9527 17.0387 36.9488 16.8685 36.9488 16.6997V12.6063C36.9521 12.3753 36.9257 12.1449 36.8702 11.9206C36.7889 11.6681 36.6443 11.4406 36.4502 11.2597C36.2595 11.0655 36.0449 10.8962 35.8116 10.7559C35.4565 10.5518 35.101 10.3402 34.745 10.1212L34.5684 9.99037C34.7699 9.92232 35.354 9.68502 36.3206 9.27848C37.385 8.82133 38.2818 8.41522 39.0112 8.06014C39.2659 7.92491 39.7894 7.64574 40.5815 7.22262C40.9706 7.00364 41.3349 6.80036 41.6742 6.61279V8.82176L41.9543 8.54302C42.4552 8.00726 43.0606 7.57988 43.7331 7.28727C44.4056 6.99467 45.131 6.84306 45.8645 6.8418C46.9788 6.82487 48.0557 7.24317 48.8665 8.00779C49.2714 8.36324 49.5946 8.80218 49.8137 9.29443C50.0328 9.78667 50.1427 10.3205 50.1358 10.8593V16.6866C50.1358 18.3146 50.3649 19.18 50.8229 19.283C51.0925 19.334 51.3725 19.3759 51.6604 19.4138H51.8384V20.2775Z" fill="black"/>
<path d="M100.188 20.2774H91.8062V19.415H91.9816C92.1195 19.415 92.2571 19.4018 92.3925 19.3757C92.534 19.3509 92.6729 19.3127 92.8073 19.2619C92.9293 19.2134 93.0387 19.1378 93.1272 19.0408C93.2156 18.9437 93.2808 18.8278 93.3177 18.7018C93.403 18.3596 93.4409 18.0074 93.4302 17.6549V10.9364C93.4496 10.4835 93.3729 10.0318 93.2051 9.61071C93.0981 9.39432 92.9338 9.21142 92.73 9.08189C92.5263 8.95236 92.291 8.88116 92.0496 8.87603C91.8083 8.8709 91.5701 8.93204 91.3611 9.05281C91.152 9.17357 90.9801 9.34933 90.864 9.56098C90.6191 10.0596 90.4979 10.61 90.5107 11.1654V20.2774H83.6286V19.415H83.8052C84.1116 19.4248 84.4172 19.3805 84.7082 19.2841C84.8263 19.2375 84.9317 19.1637 85.0158 19.0686C85.0999 18.9736 85.1604 18.86 85.1924 18.7371C85.2894 18.3969 85.3335 18.0438 85.3232 17.6902C85.3232 17.5367 85.3193 17.3757 85.3115 17.2073C85.3023 17.0385 85.2984 16.8684 85.2984 16.6996V12.6062C85.2994 12.3747 85.2699 12.1442 85.2107 11.9204C85.1298 11.668 84.9857 11.4405 84.7919 11.2596C84.6037 11.0658 84.3917 10.8966 84.1612 10.7558C83.8052 10.5516 83.4497 10.3401 83.0946 10.1211L82.918 9.99022C83.1195 9.92217 83.7036 9.68487 84.6702 9.27832C85.7363 8.8203 86.6332 8.41375 87.3608 8.05867L88.9311 7.22115C89.3202 7.00217 89.684 6.7989 90.0225 6.61133V8.82161L90.3026 8.54287C90.8039 8.00731 91.4096 7.58008 92.0823 7.2875C92.755 6.99492 93.4805 6.84318 94.2141 6.84165C95.3279 6.82505 96.4044 7.24333 97.2148 8.00764C97.62 8.36296 97.9433 8.80185 98.1627 9.2941C98.3821 9.78635 98.4922 10.3203 98.4855 10.8591V16.6865C98.4855 18.3144 98.7145 19.1799 99.1725 19.2828C99.4421 19.3338 99.7208 19.3757 100.01 19.4137H100.188V20.2774Z" fill="black"/>
<path d="M116.612 20.2775H108.229V19.4151H108.404C108.542 19.4152 108.68 19.402 108.816 19.3759C108.957 19.3508 109.096 19.3127 109.23 19.262C109.352 19.2136 109.461 19.138 109.55 19.0409C109.638 18.9439 109.703 18.8279 109.74 18.7019C109.827 18.36 109.865 18.0076 109.853 17.655V10.9365C109.873 10.4839 109.797 10.0321 109.63 9.61087C109.523 9.39448 109.359 9.21157 109.155 9.08204C108.951 8.95251 108.716 8.88131 108.475 8.87619C108.233 8.87106 107.995 8.9322 107.786 9.05296C107.577 9.17373 107.405 9.34949 107.289 9.56114C107.045 10.06 106.924 10.6102 106.936 11.1655V20.2775H100.051V19.4151H100.228C100.534 19.4249 100.84 19.3806 101.131 19.2843C101.249 19.2377 101.354 19.1638 101.438 19.0688C101.522 18.9737 101.583 18.8601 101.615 18.7373C101.712 18.3971 101.756 18.044 101.746 17.6904C101.746 17.5368 101.742 17.3759 101.734 17.2075C101.725 17.0387 101.721 16.8685 101.721 16.6997V12.6063C101.721 12.3749 101.692 12.1445 101.633 11.9206C101.552 11.6679 101.408 11.4402 101.213 11.2597C101.026 11.0661 100.815 10.8968 100.585 10.7559C100.229 10.5518 99.8735 10.3402 99.5185 10.1212L99.3418 9.99037C99.5433 9.92232 100.127 9.68502 101.094 9.27848C102.161 8.82133 103.058 8.41522 103.785 8.06014L105.355 7.22262C105.744 7.00364 106.108 6.80036 106.446 6.61279V8.82176L106.726 8.54302C107.227 8.0071 107.833 7.57962 108.506 7.28701C109.179 6.9944 109.904 6.84288 110.638 6.8418C111.752 6.82521 112.828 7.24349 113.639 8.00779C114.043 8.3634 114.367 8.80234 114.586 9.29452C114.805 9.78671 114.916 10.3205 114.909 10.8593V16.6866C114.909 18.3146 115.138 19.18 115.595 19.283C115.866 19.334 116.145 19.3759 116.431 19.4138H116.612V20.2775Z" fill="black"/>
<path d="M66.3455 13.3273C66.3611 14.3147 66.1601 15.2935 65.7565 16.1947C65.3529 17.0959 64.7566 17.8977 64.0096 18.5435C62.6384 19.8428 60.8184 20.5625 58.9295 20.5523C56.928 20.5781 54.9957 19.8201 53.5457 18.4402C52.8198 17.8022 52.2403 17.015 51.8468 16.1323C51.4534 15.2496 51.2553 14.2924 51.2661 13.326C51.2545 12.3985 51.4542 11.4804 51.8501 10.6415C52.246 9.80262 52.8276 9.06483 53.551 8.48409C55.0373 7.19948 56.9442 6.50641 58.9085 6.53685C60.7872 6.51925 62.6057 7.19909 64.0122 8.44483C65.5712 9.78487 66.3498 11.4137 66.3481 13.3313M60.81 0.360103C60.985 0.499747 61.1241 0.679223 61.2156 0.883556C61.3154 1.09703 61.3672 1.32973 61.3674 1.56535C61.382 1.84504 61.3184 2.12326 61.1839 2.36892C61.0494 2.61457 60.8493 2.81799 60.6058 2.95643C60.2001 3.20856 59.7687 3.46112 59.3116 3.71413C58.0405 4.40334 57.3203 4.79898 57.151 4.90106L56.8932 5.0594L56.6315 4.78197L56.7336 4.57913C57.0555 3.68665 57.394 2.84432 57.7491 2.05216C57.9678 1.51244 58.24 0.996003 58.5617 0.510596C58.7094 0.334534 58.8974 0.19669 59.1097 0.108755C59.322 0.0208198 59.5524 -0.0146123 59.7814 0.00546367C60.1493 0.0107366 60.5056 0.135172 60.7969 0.360103M60.772 13.4163C60.772 11.5267 60.704 10.2254 60.5679 9.51268C60.3061 8.10197 59.7356 7.39662 58.8562 7.39662C58.5448 7.38985 58.2385 7.47582 57.9761 7.6436C57.7137 7.81137 57.5071 8.05337 57.3826 8.33883C57.0093 9.05335 56.823 10.3711 56.8239 12.2922V14.5352C56.8239 16.1344 56.9163 17.265 57.1013 17.9272C57.4049 19.0151 57.9851 19.559 58.8418 19.559C59.6174 19.559 60.1561 19.1342 60.4579 18.2844C60.676 17.6737 60.7855 16.7219 60.7864 15.429V13.4163H60.772Z" fill="black"/>
<path d="M4.77258 12.9388H9.43785C12.3168 22.9642 15.0898 30.8291 23.3552 30.8291C27.1149 30.8291 30.6076 29.2587 30.6076 24.7767C30.6076 24.2492 30.4512 23.7335 30.1581 23.295C29.8651 22.8564 29.4485 22.5145 28.9612 22.3127C28.4739 22.1108 27.9376 22.058 27.4203 22.1609C26.903 22.2638 26.4277 22.5178 26.0548 22.8908C25.6818 23.2638 25.4278 23.739 25.3249 24.2564C25.2219 24.7737 25.2748 25.3099 25.4766 25.7973C25.6785 26.2846 26.0203 26.7011 26.4589 26.9942C26.8975 27.2872 27.4131 27.4437 27.9406 27.4437C28.2612 27.4437 28.3947 27.6831 28.3947 27.9763C28.3947 28.9891 27.0075 29.6029 26.1007 29.6029C18.1834 29.6029 14.7967 9.49969 11.9674 1.60864H7.70522L2.90647 17.0714C2.87899 17.1787 1.59784 19.7384 0.532613 19.7384H0V20.271H6.93575V19.7384H6.39921C5.38502 19.7384 3.81204 18.7242 3.81204 16.7286C3.80983 16.2747 3.88143 15.8234 4.02404 15.3925L4.77258 12.9388ZM7.1713 5.12886C7.91853 7.63489 8.6108 10.0611 9.2782 12.4075H4.93223L7.1713 5.12886Z" fill="black"/>
<path d="M130.999 13.3064C131.015 14.2896 130.815 15.2643 130.413 16.1618C130.012 17.0593 129.418 17.8576 128.673 18.5003C127.308 19.7946 125.496 20.5122 123.614 20.5039C121.619 20.5294 119.694 19.7737 118.249 18.3983C117.525 17.7637 116.946 16.98 116.553 16.1008C116.16 15.2217 115.963 14.2679 115.973 13.3051C115.962 12.3801 116.161 11.4646 116.557 10.6283C116.952 9.79202 117.533 9.0569 118.255 8.47884C119.735 7.20019 121.634 6.51039 123.589 6.54076C125.461 6.52212 127.273 7.19928 128.673 8.44089C130.225 9.77569 131.001 11.3975 130.999 13.3064ZM125.462 13.3954C125.462 11.5144 125.394 10.2189 125.259 9.50873C124.991 8.10414 124.418 7.40184 123.538 7.40184C123.228 7.39474 122.923 7.48023 122.662 7.64737C122.401 7.81451 122.196 8.0557 122.073 8.34013C121.701 9.05202 121.515 10.3641 121.515 12.2765V14.5116C121.515 16.1029 121.608 17.2284 121.793 17.8879C122.094 18.9715 122.672 19.5132 123.527 19.5132C124.298 19.5132 124.834 19.0901 125.135 18.2439C125.352 17.6332 125.461 16.6853 125.462 15.4002V13.3941V13.3954Z" fill="black"/>
<path d="M69.4822 12.9374H74.1514C77.0304 22.9681 79.806 30.8395 88.0779 30.8395C91.8389 30.8395 95.3356 29.2692 95.3356 24.7832C95.3358 24.2554 95.1795 23.7394 94.8865 23.3004C94.5935 22.8614 94.1768 22.5192 93.6893 22.3171C93.2017 22.1149 92.6652 22.0619 92.1475 22.1647C91.6298 22.2675 91.1542 22.5215 90.7809 22.8946C90.4076 23.2677 90.1534 23.7432 90.0503 24.2608C89.9473 24.7785 90 25.315 90.2019 25.8027C90.4039 26.2903 90.7459 26.7071 91.1847 27.0004C91.6235 27.2936 92.1395 27.4502 92.6673 27.4502C92.9866 27.4502 93.1214 27.691 93.1214 27.9841C93.1214 28.9996 91.7342 29.612 90.8273 29.612C82.9036 29.612 79.5142 9.49574 76.6862 1.59814H72.4175L67.6148 17.0727C67.6148 17.0727 66.3062 19.7397 65.2396 19.7397H64.707V20.2736H71.6428V19.7397H71.1102C70.0947 19.7397 68.5217 18.7255 68.5217 16.7299C68.5203 16.2763 68.5924 15.8256 68.735 15.395L69.4822 12.9374ZM71.8836 5.11967C72.6295 7.62832 73.3231 10.0558 73.9918 12.4035H69.6419L71.8836 5.11967Z" fill="black"/>
</svg>
