<svg id="Layer_1" data-name="Layer 1" xmlns="http://www.w3.org/2000/svg" viewBox="0 0 1019.54 247.28"><defs><style>.cls-1{fill:#fff;}</style></defs><title>AnnoAnno Logo New</title><path id="Path_1" data-name="Path 1" class="cls-1" d="M279.88,160.76h-64v-6.59h1.34a16.72,16.72,0,0,0,3.15-.3,17.64,17.64,0,0,0,3.16-.87,6.6,6.6,0,0,0,3.9-4.28,28.61,28.61,0,0,0,.86-8V89.38a24.54,24.54,0,0,0-1.72-10.13,10.09,10.09,0,0,0-17.89-.38,26.43,26.43,0,0,0-2.7,12.26v69.63H153.35v-6.59h1.35a19.9,19.9,0,0,0,6.89-1,6.16,6.16,0,0,0,3.7-4.18,26.39,26.39,0,0,0,1-8q0-1.76-.09-3.69c-.07-1.29-.1-2.59-.1-3.88V102.14a20.14,20.14,0,0,0-.67-5.24,11.77,11.77,0,0,0-3.2-5.05A24.59,24.59,0,0,0,157.41,88q-4.07-2.34-8.15-4.85l-1.35-1q2.31-.78,13.39-5.44,12.22-5.25,20.56-9.32,2.92-1.55,12-6.4,4.46-2.51,8.35-4.66V73.22l2.14-2.13a41,41,0,0,1,29.89-13A32.71,32.71,0,0,1,257.17,67a28.49,28.49,0,0,1,9.71,21.79v44.54q0,18.66,5.25,19.84c2.06.38,4.2.71,6.4,1h1.36Z"/><path id="Path_2" data-name="Path 2" class="cls-1" d="M405.38,160.76h-64v-6.59h1.33a16.72,16.72,0,0,0,3.15-.3A17.41,17.41,0,0,0,349,153a6.6,6.6,0,0,0,3.9-4.28,28.61,28.61,0,0,0,.86-8V89.38A24.54,24.54,0,0,0,352,79.25a10.09,10.09,0,0,0-17.89-.38,26.43,26.43,0,0,0-2.7,12.26v69.63H278.85v-6.59h1.35a19.87,19.87,0,0,0,6.89-1,6.13,6.13,0,0,0,3.7-4.18,26.39,26.39,0,0,0,1-8q0-1.76-.09-3.69c-.07-1.29-.1-2.59-.1-3.88V102.14A20.57,20.57,0,0,0,291,96.9a11.88,11.88,0,0,0-3.21-5.05A24.59,24.59,0,0,0,282.91,88q-4.07-2.34-8.15-4.85l-1.35-1q2.31-.78,13.39-5.44Q299,71.47,307.36,67.4q2.92-1.55,12-6.4,4.46-2.51,8.35-4.66V73.22l2.14-2.13a41,41,0,0,1,29.88-13A32.71,32.71,0,0,1,382.67,67a28.51,28.51,0,0,1,9.7,21.79v44.53q0,18.66,5.25,19.84c2.06.39,4.2.71,6.4,1h1.36Z"/><path id="Path_3" data-name="Path 3" class="cls-1" d="M774.84,160.76H710.79v-6.59h1.34a16.62,16.62,0,0,0,3.14-.3,17.52,17.52,0,0,0,3.17-.87,6.6,6.6,0,0,0,3.9-4.28,29.38,29.38,0,0,0,.86-8V89.38a24.54,24.54,0,0,0-1.72-10.13,10.09,10.09,0,0,0-17.89-.38,26.43,26.43,0,0,0-2.7,12.26v69.63H648.3v-6.59h1.35a19.93,19.93,0,0,0,6.9-1,6.16,6.16,0,0,0,3.7-4.18,26.39,26.39,0,0,0,1-8q0-1.76-.09-3.69c-.07-1.29-.1-2.59-.1-3.88V102.14a20.14,20.14,0,0,0-.67-5.24,11.86,11.86,0,0,0-3.2-5.05A24.59,24.59,0,0,0,652.37,88q-4.08-2.34-8.15-4.85l-1.35-1q2.31-.78,13.39-5.44,12.22-5.25,20.56-9.32l12-6.4q4.46-2.51,8.34-4.66V73.22l2.14-2.13a41.06,41.06,0,0,1,29.89-13A32.71,32.71,0,0,1,752.12,67a28.51,28.51,0,0,1,9.71,21.79v44.53q0,18.66,5.25,19.84c2.06.39,4.19.71,6.4,1h1.36Z"/><path id="Path_4" data-name="Path 4" class="cls-1" d="M900.35,160.76H836.29v-6.59h1.34a16.64,16.64,0,0,0,3.15-.3,17.64,17.64,0,0,0,3.16-.87,6.6,6.6,0,0,0,3.9-4.28,28.61,28.61,0,0,0,.86-8V89.38A24.54,24.54,0,0,0,847,79.25a10.09,10.09,0,0,0-17.89-.38,26.56,26.56,0,0,0-2.7,12.26v69.63H773.8v-6.59h1.35a19.93,19.93,0,0,0,6.9-1,6.16,6.16,0,0,0,3.7-4.18,26.36,26.36,0,0,0,1-8q0-1.76-.09-3.69c-.07-1.29-.1-2.59-.1-3.88V102.14a20.58,20.58,0,0,0-.67-5.24,11.79,11.79,0,0,0-3.21-5.05A24.53,24.53,0,0,0,777.88,88q-4.08-2.34-8.15-4.85l-1.35-1q2.31-.78,13.39-5.44Q794,71.47,802.33,67.4l12-6.4q4.46-2.51,8.34-4.66V73.22l2.14-2.13a41,41,0,0,1,29.89-13A32.71,32.71,0,0,1,877.63,67a28.56,28.56,0,0,1,9.71,21.79v44.53q0,18.66,5.24,19.84c2.07.39,4.2.71,6.39,1h1.38Z"/><path id="Path_5" data-name="Path 5" class="cls-1" d="M516.23,107.65a51.61,51.61,0,0,1-17.85,39.86,56,56,0,0,1-38.82,15.35,58.58,58.58,0,0,1-41.14-16.14A51.26,51.26,0,0,1,401,107.64a46.7,46.7,0,0,1,17.46-37,61.16,61.16,0,0,1,40.94-14.88,58,58,0,0,1,39,14.58q17.87,15.36,17.85,37.34M473.93,8.56a10.73,10.73,0,0,1,3.1,4,12.34,12.34,0,0,1,1.16,5.21,11.54,11.54,0,0,1-5.82,10.63q-4.65,2.89-9.89,5.79-14.57,7.9-16.51,9.07L444,44.47l-2-2.12.78-1.55q3.69-10.23,7.76-19.31a66.58,66.58,0,0,1,6.21-11.78,10.92,10.92,0,0,1,9.32-3.86,13,13,0,0,1,7.76,2.71m-.19,99.77q0-21.66-1.56-29.83Q469.08,62.33,459,62.33a12,12,0,0,0-11.26,7.2q-4.28,8.19-4.27,30.21v17.14q0,18.33,2.12,25.92,3.48,12.47,13.3,12.47,8.89,0,12.35-9.74,2.5-7,2.51-21.82V108.33Z"/><path id="Path_164" data-name="Path 164" class="cls-1" d="M45.72,104.68H81.37c22,76.61,43.19,136.71,106.35,136.71,28.73,0,55.42-12,55.42-46.25a20.38,20.38,0,1,0-20.38,20.38h0c2.45,0,3.47,1.83,3.47,4.07,0,7.74-10.6,12.43-17.53,12.43-60.5,0-86.38-153.62-108-213.92H68.13L31.46,136.26c-.21.82-10,20.38-18.14,20.38H9.25v4.07h53v-4.07H58.15c-7.75,0-19.77-7.75-19.77-23A32,32,0,0,1,40,123.43ZM64.05,45c5.71,19.15,11,37.69,16.1,55.62H46.94Z"/><path id="Path_166" data-name="Path 166" class="cls-1" d="M1010.29,107.49a51.33,51.33,0,0,1-17.77,39.69,55.84,55.84,0,0,1-38.66,15.31,58.38,58.38,0,0,1-41-16.09,51,51,0,0,1-17.39-38.92A46.5,46.5,0,0,1,912.91,70.6a60.9,60.9,0,0,1,40.76-14.81,57.7,57.7,0,0,1,38.85,14.52q17.79,15.3,17.77,37.18m-42.31.68q0-21.56-1.55-29.7-3.07-16.1-13.15-16.1a11.91,11.91,0,0,0-11.2,7.17q-4.26,8.16-4.26,30.08V116.7q0,18.24,2.12,25.8,3.45,12.42,13.25,12.42,8.84,0,12.29-9.7,2.49-7,2.5-21.73V108.16Zm-540.58,40"/><path id="Path_165" data-name="Path 165" class="cls-1" d="M540.2,104.67h35.68c22,76.65,43.21,136.8,106.42,136.8,28.74,0,55.46-12,55.46-46.28a20.39,20.39,0,1,0-20.39,20.38h0c2.44,0,3.47,1.84,3.47,4.08,0,7.76-10.6,12.44-17.53,12.44-60.55,0-86.45-153.72-108.06-214.07H562.63l-36.7,118.25s-10,20.38-18.15,20.38h-4.07v4.08h53v-4.08h-4.07c-7.76,0-19.78-7.75-19.78-23a32.12,32.12,0,0,1,1.63-10.2Zm18.35-59.74c5.7,19.17,11,37.72,16.11,55.66H541.42Z"/></svg>