<svg width="101" height="16" viewBox="0 0 101 16" fill="none" xmlns="http://www.w3.org/2000/svg">
<g clip-path="url(#clip0_8040_46071)">
<g clip-path="url(#clip1_8040_46071)">
<path d="M0 11.3059H2.38374C2.42914 12.8266 3.56425 13.8183 5.28962 13.8183C7.35552 13.8183 8.19551 12.2976 8.19551 10.799V2.40233H5.28962V0.286621H10.6473V10.8211C10.6473 13.642 8.85387 16.0001 5.24422 16.0001C2.38373 16.0001 0.0454045 14.3252 0 11.3059Z" fill="#3320DB"/>
<path d="M13.4549 10.4463V5.55372C13.4549 2.38017 15.884 0 19.4255 0C22.9671 0 25.3962 2.38017 25.3962 5.55372V10.4463C25.3962 13.6198 22.9671 16 19.4255 16C15.884 16 13.4549 13.6198 13.4549 10.4463ZM22.9898 10.314V5.68595C22.9898 3.96695 21.832 2.26998 19.4255 2.26998C17.0191 2.26998 15.8613 3.96695 15.8613 5.68595V10.314C15.8613 12.0551 16.9964 13.73 19.4255 13.73C21.8547 13.73 23.0049 12.0551 23.0049 10.314H22.9898Z" fill="#3320DB"/>
<path d="M28.4081 0.286621H33.9247C36.9857 0.286621 38.7565 2.00563 38.7565 4.2756C38.7803 4.9399 38.6122 5.5974 38.2712 6.1738C37.9302 6.7502 37.4299 7.2225 36.8268 7.53731V7.68056C37.5727 7.96195 38.2108 8.46024 38.6538 9.10724C39.0968 9.75423 39.3229 10.5183 39.3014 11.2949C39.3014 14.0938 37.0311 15.7246 34.3825 15.7246H28.4081V0.286621ZM33.7053 6.788C35.2679 6.788 36.3122 5.86238 36.3122 4.49599C36.3122 3.1296 35.249 2.31417 33.7507 2.31417H30.7767V6.788H33.7053ZM33.8415 13.6861C35.4987 13.6861 36.7474 12.8927 36.7474 11.1149C36.7474 9.33713 35.2944 8.62455 33.6826 8.62455H30.7767V13.6714L33.8415 13.6861Z" fill="#3320DB"/>
<path d="M41.1894 10.9864H43.5732C43.5959 12.5732 44.9315 13.8294 47.1374 13.8294C49.0293 13.8294 50.2892 12.9919 50.2892 11.6035C50.2892 7.43823 41.6889 10.5236 41.6889 4.30876C41.6889 1.97267 43.6413 0.0112305 46.9861 0.0112305C49.6876 0.0112305 52.3892 1.4217 52.4346 4.63933H49.9638C49.9638 3.11867 48.8931 2.14897 46.9672 2.14897C45.0412 2.14897 44.1067 3.16275 44.1067 4.26467C44.1067 7.98919 52.8092 5.19029 52.8092 11.4272C52.8092 13.9984 50.7017 16.0112 47.0428 16.0112C43.6413 16.0002 41.1894 13.9506 41.1894 10.9864Z" fill="#3320DB"/>
<path d="M55.8286 0.286621H61.6857C64.6597 0.286621 66.771 2.20398 66.771 5.09103C66.771 7.97808 64.5689 9.96156 61.6857 9.96156H58.2804V15.7136H55.8286V0.286621ZM61.4587 7.91197C63.1614 7.91197 64.2965 6.72188 64.2965 5.09103C64.3155 4.72439 64.2551 4.35797 64.1192 4.01539C63.9833 3.67281 63.7749 3.36169 63.5075 3.10211C63.2401 2.84253 62.9197 2.64026 62.5668 2.50833C62.2139 2.37641 61.8364 2.31778 61.4587 2.33621H58.2804V7.91197H61.4587Z" fill="#3320DB"/>
<path d="M69.9229 13.5575V2.4464V0.286621H72.352V2.4464V13.5575V15.7173H69.9229V13.5575Z" fill="#3320DB"/>
<path d="M77.1119 0.286621H82.7875C86.0339 0.286621 87.7441 2.22602 87.7441 5.02492C87.7441 7.22877 86.7149 8.88166 84.9669 9.49874L88.1982 15.7136H85.8144L82.568 9.83667H79.5713V15.7136H77.1119V0.286621ZM82.674 7.77974C84.3539 7.77974 85.6025 6.85412 85.6025 5.02492C85.6025 3.52629 84.5582 2.33621 82.5756 2.33621H79.5486V7.77974H82.674Z" fill="#3320DB"/>
<path d="M91.1116 0.286621H100.533V2.38029H93.5673V6.85412H99.5379V8.92574H93.5673V13.642H100.756V15.7136H91.1116V0.286621Z" fill="#3320DB"/>
<path d="M1.12376 6.00571C1.11092 5.69996 1.19271 5.39747 1.3586 5.13726C1.52449 4.87705 1.76686 4.67104 2.05448 4.54579C2.34209 4.42054 2.66176 4.3818 2.97226 4.43455C3.28277 4.48731 3.56988 4.62915 3.79658 4.84178C4.02328 5.05441 4.17918 5.32808 4.24417 5.62752C4.30916 5.92696 4.28026 6.23843 4.16121 6.52178C4.04216 6.80513 3.8384 7.04736 3.57622 7.21725C3.31403 7.38714 3.00544 7.4769 2.69022 7.47495C2.48611 7.48559 2.28194 7.45526 2.09044 7.38587C1.89895 7.31648 1.72425 7.20951 1.57725 7.07163C1.43026 6.93376 1.31412 6.76794 1.23609 6.58454C1.15807 6.40115 1.11983 6.2041 1.12376 6.00571Z" fill="#3320DB"/>
</g>
</g>
<defs>
<clipPath id="clip0_8040_46071">
<rect width="100.764" height="16" fill="white"/>
</clipPath>
<clipPath id="clip1_8040_46071">
<rect width="100.764" height="16" fill="white"/>
</clipPath>
</defs>
</svg>
