<?xml version="1.0" encoding="utf-8"?>
<!-- Generator: Adobe Illustrator 23.0.0, SVG Export Plug-In . SVG Version: 6.00 Build 0)  -->
<svg version="1.1" id="Layer" xmlns="http://www.w3.org/2000/svg" xmlns:xlink="http://www.w3.org/1999/xlink" x="0px" y="0px"
	 viewBox="0 0 1986 1352.92" style="enable-background:new 0 0 1986 1352.92;" xml:space="preserve">
<style type="text/css">
	.st0{fill:#FFFFFF;stroke:#170C2C;stroke-width:3;stroke-miterlimit:10;}
	.st1{fill:#F7C9D6;}
	.st2{fill:#FFFFFF;}
	.st3{fill:#FFC200;}
	.st4{fill:#FFCD00;}
	.st5{fill:#FFFFFF;stroke:#FFFFFF;stroke-width:3;stroke-miterlimit:10;}
	.st6{fill:#030207;}
	.st7{fill:#D14D33;}
	.st8{fill:none;stroke:#000000;stroke-width:4;stroke-miterlimit:10;}
	.st9{fill:none;stroke:#000000;stroke-width:4;stroke-linejoin:bevel;stroke-miterlimit:10;}
	.st10{fill:none;}
	.st11{fill:#FFFFFF;stroke:#000000;stroke-width:4;stroke-linejoin:bevel;stroke-miterlimit:10;}
	.st12{fill:#0083C8;}
</style>
<g id="Back">
	<line class="st0" x1="1018.26" y1="992.23" x2="986.78" y2="973.39"/>
	<line class="st0" x1="1444.16" y1="113.05" x2="1408.87" y2="102.98"/>
	<line class="st0" x1="883.79" y1="109.89" x2="852.96" y2="89.99"/>
	<line class="st0" x1="1617.69" y1="1192.9" x2="1586.21" y2="1174.06"/>
	<line class="st0" x1="545.36" y1="594.85" x2="513.88" y2="576.01"/>
	<line class="st0" x1="150.2" y1="319.24" x2="113.63" y2="316.3"/>
	<line class="st0" x1="180.39" y1="888" x2="150.52" y2="854.85"/>
	<line class="st0" x1="561.18" y1="1248.12" x2="541.77" y2="1216.98"/>
	<line class="st0" x1="1768.7" y1="772.32" x2="1749.29" y2="741.19"/>
	<line class="st0" x1="1820.96" y1="109.87" x2="1838.22" y2="77.49"/>
	<line class="st0" x1="172.17" y1="1165.1" x2="136.76" y2="1174.72"/>
	<line class="st0" x1="1162.6" y1="263.67" x2="1143.76" y2="295.15"/>
	<line class="st0" x1="741.21" y1="290.3" x2="716.15" y2="317.1"/>
	<line class="st0" x1="334.36" y1="84.12" x2="314.46" y2="114.95"/>
	<line class="st0" x1="1685.11" y1="213.12" x2="1648.66" y2="217.34"/>
	<line class="st0" x1="1848.91" y1="427.42" x2="1814.06" y2="415.92"/>
	<line class="st0" x1="1406.29" y1="1045.01" x2="1387.45" y2="1076.5"/>
	<line class="st0" x1="551.13" y1="972.48" x2="535.37" y2="1005.62"/>
	<line class="st0" x1="1889.02" y1="990.72" x2="1858.31" y2="1010.79"/>
	<line class="st0" x1="1335.41" y1="564.39" x2="1316.57" y2="595.87"/>
	<line class="st0" x1="208.54" y1="598.59" x2="176.18" y2="615.87"/>
</g>
<g id="Woman_and_shapes">
	<path class="st1" d="M1570.42,285.33c-69.39-13.92-136.94,31.06-150.85,100.47c-13.91,69.4,31.08,136.93,100.48,150.84
		c35.91,7.2,71.32-1.37,99.06-20.94c9.12-6.42,17.41-14.03,24.61-22.66c13.24-15.87,22.83-35.17,27.18-56.86
		C1684.81,366.78,1639.82,299.24,1570.42,285.33z M1608.91,423.75c-2.2,10.99-7.06,20.77-13.77,28.81
		c-3.65,4.38-7.85,8.24-12.47,11.49c-14.06,9.92-32,14.26-50.2,10.61c-35.17-7.05-57.96-41.27-50.91-76.44s41.27-57.96,76.44-50.91
		C1593.17,354.36,1615.96,388.58,1608.91,423.75z"/>
	<g>
		<g>
			<path class="st2" d="M1448.85,493.68c13.09-12.25,28.93-16.33,46.54-15.97c20.08,0.41,38.34,8.11,57.26,13.94
				c29.18,9,68.42,9.93,86.66-19.47c7.09-11.43,9.74-26.25,4.42-38.92c-5.27-12.56-17.1-19.84-29.46-24.2
				c-14.33-5.05-29.69-6.84-43.73-12.76c-15.59-6.57-29.25-18.06-37.69-32.8c-13.85-24.2-13.14-63.84,12.97-79.72
				c1.27-0.77,0.14-2.71-1.16-1.99c-22.68,12.46-27.62,39.96-22.76,63.61c5.92,28.79,29.95,49.87,57.31,58.13
				c14.35,4.33,29.82,6.25,43.22,13.27c14.56,7.63,22.73,22.14,19.35,38.6c-3.52,17.11-16.52,29.75-32.91,34.95
				c-17.92,5.69-36.69,3.09-54.36-2.09c-20.41-5.98-39.86-13.9-61.47-13.65c-17.48,0.21-32.94,5.25-45.55,17.68
				C1446.59,493.2,1447.94,494.53,1448.85,493.68L1448.85,493.68z"/>
		</g>
	</g>
	<g>
		<g>
			<path class="st2" d="M1584.24,288.05c-7.66,18.4-2.88,37.26,11.66,50.72c8.07,7.47,18.63,11.47,28.99,14.62
				c12.57,3.82,25.84,8.54,38.9,10.16c1.23,0.15,1.75-1.86,0.64-2.36c-20.1-9.02-44.44-9.07-62.72-22.27
				c-6.62-4.78-12.4-11.62-15.86-19.03c-4.72-10.12-4.1-21.15-0.56-31.54C1585.52,287.66,1584.5,287.42,1584.24,288.05
				L1584.24,288.05z"/>
		</g>
	</g>
	<g>
		<g>
			<path class="st2" d="M1480.42,521.95c28.36-11.02,64.53-5.15,87.66,14.57c0.94,0.8,2.56-0.23,1.81-1.4
				c-8.31-13.01-26.8-17.66-40.95-20.29c-16.9-3.14-33.52-1.65-49.23,5.43C1478.77,520.7,1479.44,522.33,1480.42,521.95
				L1480.42,521.95z"/>
		</g>
	</g>
	<g>
		<g>
			<path class="st2" d="M1461.96,314.14c2.84,25.25,4.07,50.87-2.24,75.73c-3.1,12.22-7.69,24.06-13.94,35.02
				c-6.05,10.61-13.95,19.36-21.33,28.96c-0.75,0.97,0.71,2.36,1.68,1.68c9.57-6.72,16.94-17.89,22.73-27.85
				c6.5-11.17,11.31-23.38,14.47-35.9c6.45-25.58,5.6-52.19,0.28-77.86C1463.43,313,1461.85,313.18,1461.96,314.14L1461.96,314.14z"
				/>
		</g>
	</g>
	<polygon class="st3" points="1471.73,608.24 1526.6,710.55 1641.98,723.36 1561.63,807.15 1585.11,920.85 1480.59,870.32 
		1379.71,927.78 1395.46,812.76 1309.64,734.58 1423.9,714.02 	"/>
	<g>
		<g>
			<path class="st2" d="M1445.82,665.42c4.37,2.67,10.3,3.39,15.22,4.69c5.72,1.52,11.46,2.98,17.2,4.43
				c10.85,2.73,21.87,6.29,33.05,7.19c1.03,0.08,1.01-1.31,0.22-1.64c-10.54-4.43-22.24-6.36-33.35-8.98
				c-5.45-1.29-10.9-2.55-16.36-3.77c-5.04-1.13-10.55-3.22-15.73-2.86C1445.58,664.51,1445.37,665.15,1445.82,665.42
				L1445.82,665.42z"/>
		</g>
	</g>
	<g>
		<g>
			<path class="st2" d="M1372.74,735.82c3.7,1.86,7.94,2.62,11.94,3.6c5.82,1.42,11.64,2.82,17.45,4.25
				c15.38,3.8,30.82,7.37,46.22,11.09c32.87,7.94,65.81,15.69,98.77,23.27c11.86,2.73,23.7,5.53,35.71,7.59
				c1.04,0.18,1.48-1.28,0.44-1.61c-25.03-7.98-51.11-13.06-76.68-19c-32.89-7.64-65.79-15.17-98.7-22.73
				c-6.94-1.59-13.89-3.16-20.82-4.76c-4.58-1.06-9.35-2.59-14.07-2.64C1372.52,734.87,1372.29,735.59,1372.74,735.82
				L1372.74,735.82z"/>
		</g>
	</g>
	<g>
		<g>
			<path class="st2" d="M1392.9,822.33c6.3,3.34,14.39,4.27,21.28,6.01c7.43,1.88,14.86,3.73,22.29,5.61
				c15.17,3.86,30.38,7.58,45.58,11.34c30.3,7.48,60.69,16.36,91.5,21.47c1.04,0.17,1.48-1.27,0.44-1.61
				c-29.68-9.65-60.74-15.75-91.06-23.06c-14.9-3.59-29.8-7.2-44.72-10.71c-7.79-1.83-15.57-3.68-23.35-5.51
				c-6.9-1.62-14.58-4.55-21.7-4.49C1392.67,821.39,1392.45,822.09,1392.9,822.33L1392.9,822.33z"/>
		</g>
	</g>
	<g>
		<g>
			<path class="st2" d="M1484.89,634.08c-8.37,30.46-15.85,61.19-23.49,91.87c-12.06,48.48-24.42,96.91-35.89,145.53
				c-2.56,10.85-5.41,23.56-7.88,33.57c-0.43,1.73,2.25,2.47,2.68,0.74c7.29-29.61,15.62-61.58,23.07-91.98
				c11.89-48.53,23.79-97.06,35.53-145.63c2.71-11.19,5.18-22.41,7.62-33.64C1486.77,633.46,1485.18,633.01,1484.89,634.08
				L1484.89,634.08z"/>
		</g>
	</g>
	<g>
		<g>
			<path class="st2" d="M1547.12,712.61c-8.28,27.9-14.38,56.55-21.42,84.8c-3.52,14.14-7.09,28.26-10.67,42.38
				c-3.55,14.06-7.83,28.16-10.4,42.43c-0.31,1.75,2.09,2.45,2.68,0.74c4.66-13.71,7.68-28.16,11.23-42.2
				c3.57-14.12,7.06-28.27,10.54-42.42c6.94-28.27,14.6-56.61,19.69-85.28C1548.95,712,1547.43,711.54,1547.12,712.61
				L1547.12,712.61z"/>
		</g>
	</g>
	<polyline class="st4" points="1186.77,1145.46 1162.15,1197.39 1252.8,1288.28 1099.31,1228.67 1145.71,1128.82 	"/>
	<line class="st5" x1="1155.44" y1="1215.87" x2="1188.78" y2="1207.3"/>
	<line class="st5" x1="1167.66" y1="1227.06" x2="1201.01" y2="1218.5"/>
	<line class="st5" x1="1179.88" y1="1238.26" x2="1213.23" y2="1229.7"/>
	<polyline class="st4" points="851.2,1095.22 877.09,1146.67 788.68,1239.25 940.68,1176.76 891.85,1077.81 	"/>
	<line class="st5" x1="884.26" y1="1165.02" x2="850.71" y2="1157.09"/>
	<line class="st5" x1="872.31" y1="1176.45" x2="838.76" y2="1168.52"/>
	<line class="st5" x1="860.36" y1="1187.87" x2="826.82" y2="1179.94"/>
	<path class="st6" d="M840.66,1122.64l-96.88-168.97c-21.74-37.92-17.33-86.46,10.83-119.03l98.79-114.28
		c37.9-43.84,91.95-67.87,148.04-65.81h0c58.04,2.13,112.2,31.95,147.42,81.19l99.4,138.93c19.81,27.68,25.72,63.83,15.85,96.88
		l-64.4,215.58l-112.04-51.62l51.43-184.01l-148.5-158.02L868,909.33l79.33,160.6L840.66,1122.64z"/>
	<g>
		<g>
			<path class="st2" d="M1026.86,832.28c17.35-10.17,40.88-18.1,60.17-8.75c15.76,7.64,25.81,23.21,35.68,36.99
				c20.36,28.42,46.17,55.44,82.82,59.34c19.71,2.1,43.07-2.33,58.46-15.57c1.45-1.25-0.4-3.39-1.97-2.56
				c-9.02,4.76-17.56,9.5-27.57,11.98c-9.9,2.45-20.25,2.99-30.37,1.73c-19.58-2.45-36.84-12.05-51.2-25.28
				c-13.25-12.21-23.46-26.82-34.16-41.19c-8.97-12.05-19.29-24.39-33.8-29.75c-19.69-7.27-41.91,1.36-58.86,11.72
				C1025.21,831.45,1025.99,832.79,1026.86,832.28L1026.86,832.28z"/>
		</g>
	</g>
	<g>
		<g>
			<path class="st2" d="M1165.85,760.49c-10.57,20.67-17.93,47.81-2.84,68.38c6.79,9.26,17.12,14.7,27.69,18.58
				c13.32,4.89,28.05,9.04,42.32,8.59c1.28-0.04,1.58-1.91,0.31-2.26c-21.76-5.96-49.63-7.38-65.49-25.71
				c-16.32-18.86-9.4-46.15,0.55-66.11C1169.22,760.29,1166.71,758.8,1165.85,760.49L1165.85,760.49z"/>
		</g>
	</g>
	<g>
		<g>
			<path class="st2" d="M1109.58,1055.52c11.9,10.02,15.63,26.36,15.24,41.31c-0.45,17.58-8.36,32.82-15.75,48.37
				c-0.6,1.26,1.09,2.9,2.1,1.62c19.48-24.72,28.1-71.02-0.48-92.73C1109.87,1053.46,1108.79,1054.86,1109.58,1055.52
				L1109.58,1055.52z"/>
		</g>
	</g>
	<g>
		<g>
			<path class="st2" d="M795.61,1045.24c21.39-2.33,42.83-0.61,62.97,7.3c19.8,7.78,37.06,21.14,51.34,36.76
				c1.07,1.17,2.65-0.52,1.71-1.71c-27.42-34.72-72.59-52.48-116.33-44.68C794,1043.15,794.28,1045.39,795.61,1045.24
				L795.61,1045.24z"/>
		</g>
	</g>
	<g>
		<g>
			<path class="st2" d="M887.48,949.64c-12.74,12-22.98,30.38-15.22,47.98c3.6,8.16,10.84,13.52,18.83,17
				c9.64,4.2,21.09,7.36,31.69,6.67c1.47-0.09,1.95-2.32,0.36-2.69c-15.61-3.66-37.52-5.34-46.46-20.97
				c-9.33-16.32,0.56-34.65,12.47-46.31C890.25,950.24,888.59,948.59,887.48,949.64L887.48,949.64z"/>
		</g>
	</g>
	<g>
		<g>
			<path class="st2" d="M919.11,671.48c13.79,6.92,28.34,12.48,43,17.26c14.17,4.62,29,8.3,44.01,7.77
				c18.63-0.66,47.35-7.96,50.22-30.42c0.2-1.56-2.14-1.99-2.84-0.77c-2.55,4.48-4.42,8.95-8.14,12.69
				c-3.43,3.45-7.57,6.09-11.99,8.08c-10.34,4.65-22.42,6.4-33.67,6.03c-27.63-0.89-54.32-12.95-79.91-22.25
				C918.85,669.53,918.22,671.03,919.11,671.48L919.11,671.48z"/>
		</g>
	</g>
	<g>
		<g>
			<path class="st2" d="M812.74,767.63c12.68,6.46,26.63,10.59,40.54,13.41c12.95,2.63,26.74,4.81,39.98,3.69
				c11.13-0.94,22.07-4.93,28.93-14.17c7.16-9.65,4.87-18.89,2.13-29.62c-1.77-6.91-1.81-13.91,5.97-16.95
				c6.81-2.66,15.29-2.17,22.34-0.89c14.52,2.65,27.58,9.87,40.48,16.67c11.76,6.2,23.86,12.32,37.08,14.64
				c12.04,2.12,24.42,1.31,36.25-1.64c13.94-3.48,27.16-9.81,39.12-17.7c10.09-6.65,18.6-14.58,21.76-26.62
				c0.59-2.24-2.7-3.11-3.44-0.95c-3.89,11.48-12.65,18.67-22.57,24.98c-10.9,6.93-22.72,12.47-35.25,15.71
				c-12.99,3.36-26.64,4.14-39.75,0.94c-13-3.17-24.79-9.73-36.55-15.9c-11.41-5.99-23.23-11.82-36.02-14.17
				c-9.25-1.7-22.69-2.85-30.36,3.96c-8.07,7.16-3.39,17.8-1.36,26.52c3.04,13.11-5.26,24.26-17.53,28.56
				c-14.43,5.06-31.86,2.46-46.57,0c-15.29-2.56-29.85-7.15-44.53-12C812.49,765.82,811.9,767.2,812.74,767.63L812.74,767.63z"/>
		</g>
	</g>
	<g>
		<g>
			<path class="st2" d="M1129.8,986.91c18.22-9.96,36.05-20.85,57.02-23.88c10.32-1.49,21.2-0.41,29.89,5.79
				c9.27,6.61,12.45,17.15,9.61,28.04c-2.76,10.59-9.23,20.13-14.58,29.55c-5.51,9.7-11.03,19.39-16.55,29.08
				c-9.02,15.85-18.57,33.69-16.44,52.57c2.05,18.13,16.03,34.48,31.85,42.72c1.43,0.75,2.5-1.2,1.24-2.12
				c-16.43-12.07-31.06-28.26-29.4-50.04c1.68-22.06,16.24-42.32,26.83-61.02c5.5-9.71,11.55-19.29,16.3-29.4
				c3.88-8.26,6.78-17.64,4.23-26.73c-4.65-16.63-23.21-23.33-38.9-22.12c-11.29,0.87-22.35,4.58-32.72,8.96
				c-10.44,4.41-20.85,9.79-29.33,17.4C1128.19,986.3,1129.05,987.32,1129.8,986.91L1129.8,986.91z"/>
		</g>
	</g>
	<g>
		<g>
			<path class="st2" d="M762.9,992.69c13.93,6.01,35.57,9.81,45.92-4.63c6.4-8.92,4.59-20.28,0.79-29.86
				c-4.66-11.76-11.67-22.46-16.66-34.09c-9.8-22.83-14.72-52.12,1.97-73.17c12.4-15.64,33.74-21.2,52.93-19.87
				c26.24,1.82,48.64,17.26,68.05,33.78c1.25,1.06,2.92-0.57,1.81-1.81c-26.47-29.44-73.39-49.59-110.74-27.97
				c-18.37,10.63-27.5,30.45-27.24,51.3c0.15,12.41,3.36,24.54,8,35.99c4.68,11.56,11.19,22.14,16.37,33.44
				c5.79,12.61,8.64,30.46-7.22,36.8c-10.41,4.16-22.89,1.54-32.95-2.37C762.53,989.7,761.51,992.09,762.9,992.69L762.9,992.69z"/>
		</g>
	</g>
	<path class="st6" d="M1069.34,468.83c11.65,60.53-27.98,119.04-88.51,130.69c-60.53,11.65-119.04-27.98-130.69-88.51"/>
	<path class="st7" d="M394.78,524.54c-73.52-5.1-128.99-68.83-123.9-142.35c5.1-73.52,68.83-128.99,142.35-123.9"/>
	<path class="st3" d="M891.23,399.92c0.23,28.8,23.76,51.95,52.56,51.71c25.46-0.21,46.5-18.62,50.88-42.78
		c0.57-3.17,0.86-6.43,0.83-9.77c-0.23-28.79-23.76-51.95-52.56-51.71c-14.98,0.12-28.43,6.54-37.86,16.74
		C896.39,373.51,891.12,386.12,891.23,399.92z"/>
	<path d="M905.08,364.1c14.21,27.5,43.02,46.19,76.09,45.93c4.59-0.04,9.1-0.44,13.49-1.18c0.57-3.17,0.86-6.43,0.83-9.77
		c-0.23-28.79-23.76-51.95-52.56-51.71C927.96,347.48,914.51,353.91,905.08,364.1z"/>
	<circle cx="964.78" cy="330.6" r="19.87"/>
	<circle cx="938.62" cy="258.91" r="56.55"/>
	<ellipse transform="matrix(0.0464 -0.9989 0.9989 0.0464 456.2061 1311.8086)" cx="915.2" cy="416.95" rx="8.14" ry="5.2"/>
	<ellipse transform="matrix(0.0464 -0.9989 0.9989 0.0464 471.2728 1330.313)" cx="932.42" cy="418.32" rx="8.14" ry="5.2"/>
	<path class="st8" d="M913.17,435.84c0,0,8.67-1.68,8.54-9.62"/>
	<path class="st9" d="M810.23,495.83l-134.72-63.18L561.58,292.41l-9.08,83.64c0,0,43.89,96.21,74.69,121.03
		C658,521.9,792.7,572.36,792.7,572.36"/>
	<path class="st9" d="M800.67,578.59l-111.63,98.39l-174.02,48.61l21.61,43.44c0,0,157.22-3.69,192.26-22.06
		c35.04-18.36,135-121.8,135-121.8"/>
	<path class="st9" d="M1099.82,439.9l145.55-38.17l113.24-101.35l34.55,50.55c0,0-75.74,103.92-110.83,122.86
		s-178.4,44.58-178.4,44.58"/>
	<path class="st7" d="M409.06,192.44c71.33-18.52,144.18,24.29,162.7,95.62c18.52,71.33-24.29,144.18-95.62,162.7"/>
	<g>
		<g>
			<path class="st2" d="M410,285.72c-33.81,7-67.66,13.85-101.32,21.59c-4.41,1.02-10.39,2.82-14.04,3.62
				c-1.71,0.38-0.99,3,0.72,2.62c11.9-2.62,26.46-5.18,39.17-8c20.69-4.6,41.33-9.41,61.97-14.23c4.71-1.1,9.42-2.2,14.13-3.3
				C412.14,287.67,411.5,285.41,410,285.72L410,285.72z"/>
		</g>
	</g>
	<g>
		<g>
			<path class="st2" d="M278.94,340c21.81,2.99,44.14,3.41,66.09,4.71c13.01,0.77,26.02,1.68,39.03,2.44
				c7.33,0.43,14.78-0.02,22.08,0.49c1.22,0.09,1.21-1.81,0-1.9c-6.37-0.45-13.98-1.93-20.75-2.43
				c-13.11-0.97-26.24-1.74-39.37-2.37c-22.18-1.06-44.66-3.08-66.88-2.44C278.33,338.52,278.05,339.88,278.94,340L278.94,340z"/>
		</g>
	</g>
	<g>
		<g>
			<path class="st2" d="M401.69,422.1c-37.71-3.29-75.44-6.52-113.21-9.04c-5.34-0.36-10.76-0.13-16.09-0.52
				c-1.37-0.1-1.36,2.03,0,2.13c13.74,1.03,29.26,2.93,43.61,3.96c23.19,1.66,46.39,3.36,69.6,4.8c5.36,0.33,10.73,0.67,16.09,1
				C403.21,424.54,403.18,422.23,401.69,422.1L401.69,422.1z"/>
		</g>
	</g>
	<g>
		<g>
			<path class="st2" d="M307.54,484.36c10.48-1.42,20.84-4.07,31.18-6.28c16.71-3.56,33.47-7.06,50.08-11.04
				c2.75-0.66,5.52-1.23,8.25-1.95c0.91-0.24,3.13-1.03,3.13-1.03c1.94-0.43,1.12-3.42-0.82-2.98c0.45-0.1-2.04,0.17-2.57,0.26
				c-2.27,0.39-4.53,0.98-6.78,1.45c-7.27,1.53-14.51,3.19-21.75,4.85c-16.66,3.81-33.32,7.61-49.94,11.57
				c-3.82,0.91-7.62,1.84-11.37,3.03C305.56,482.68,306.17,484.55,307.54,484.36L307.54,484.36z"/>
		</g>
	</g>
	<path class="st10" d="M394.78,524.54c-73.52-5.1-128.99-68.83-123.9-142.35c5.1-73.52,68.83-128.99,142.35-123.9"/>
	<g>
		<g>
			<path class="st2" d="M481.65,192.99c-3.55-0.16-7.33,1.36-10.73,2.27c-7.76,2.08-15.49,4.25-23.23,6.42
				c-7.73,2.17-15.47,4.36-23.16,6.69c-2.47,0.75-4.92,1.58-7.39,2.37c-0.72,0.23-1.48,0.41-2.17,0.7c-0.41,0.17-1.91,0.8-0.57,0.42
				c-1.77,0.51-1.01,3.27,0.76,2.76c-1.39,0.4,0.24,0.13,0.69,0.05c0.74-0.13,1.48-0.37,2.21-0.56c2.5-0.65,5.02-1.24,7.51-1.92
				c7.75-2.12,15.46-4.37,23.17-6.65c7.71-2.28,15.41-4.55,23.09-6.92c3.36-1.04,7.38-1.76,10.3-3.78
				C482.94,194.27,482.66,193.04,481.65,192.99L481.65,192.99z"/>
		</g>
	</g>
	<g>
		<g>
			<path class="st2" d="M555.79,250.14c-28.03,6.81-56.13,13.34-84.18,20.04c-13.21,3.16-26.32,6.95-39.51,10.04
				c-1.7,0.4-0.98,3.02,0.72,2.62c12.23-2.87,26.9-5.73,39.83-8.88c28.02-6.81,55.92-14.06,83.77-21.52
				C557.91,252.05,557.28,249.78,555.79,250.14L555.79,250.14z"/>
		</g>
	</g>
	<g>
		<g>
			<path class="st2" d="M449.24,351.56c13.75,2.42,27.81,3.41,41.67,5c13.03,1.49,26.07,2.95,39.1,4.46
				c9.44,1.09,18.86,2.16,28.31,3.05c3.46,0.32,7.8,0.23,10.91,0.62c1.21,0.15,1.2-1.75,0-1.9c-3.34-0.42-7.67-1.6-11.33-2.15
				c-9.03-1.35-18.08-2.46-27.17-3.48c-12.68-1.43-25.36-2.78-38.06-3.99c-14.32-1.36-28.83-3.13-43.23-3.12
				C448.61,350.06,448.37,351.4,449.24,351.56L449.24,351.56z"/>
		</g>
	</g>
	<g>
		<g>
			<path class="st2" d="M515.96,431.94c-7.61-1.01-15.21-1.92-22.84-2.74c-5.17-0.55-10.33-1.18-15.51-1.58
				c-2.21-0.17-5.76,0.15-7.33-0.01c-1.37-0.13-1.36,2,0,2.13c1.49,0.14,4.82,1.12,6.95,1.37c5.28,0.63,10.59,1.02,15.89,1.47
				c7.61,0.66,15.22,1.22,22.84,1.69C517.5,434.38,517.41,432.13,515.96,431.94L515.96,431.94z"/>
		</g>
	</g>
	<path class="st11" d="M574.04,354.39c0,0-32.23-51.86-27.85-58.79c4.38-6.92,36.74,30.47,36.74,30.47"/>
	<g>
		<g>
			
				<rect x="1364.68" y="180.52" transform="matrix(0.5417 -0.8406 0.8406 0.5417 361.9557 1317.976)" class="st12" width="50" height="293.04"/>
		</g>
	</g>
	<path class="st11" d="M1366.48,272.2c0,0-32.77,53.47-24.92,58.26c7.85,4.79,43.51-43.89,43.51-43.89s-41.02,49.25-32.65,57.92
		c8.37,8.67,49.1-50.46,49.1-50.46s-34.1,50.73-26.96,57.11s42.16-43.75,42.16-43.75"/>
	<path class="st11" d="M1103.68,554.16c5.73,0.52,124.07,101.2,124.07,101.2l149.88,62.26c0,0,23.5-45.54,30.1-44.53
		c6.6,1.01-9.62,55.33-9.62,55.33s29.74-55.19,35.13-53.73c5.39,1.46-14.24,64.52-14.24,64.52s29.53-49.44,33.77-45.47
		c4.24,3.96-28.59,65-26.52,77.66c2.07,12.66,28.39,26.13,26.94,31.93s-219.16-59.51-261.43-83.53
		c-42.27-24.02-147.22-105.04-147.22-105.04"/>
	<polygon class="st12" points="613.89,798.39 345.78,626.25 322.71,941.41 	"/>
	<g>
		<g>
			<path class="st2" d="M331.15,823.72c12.29,4,25.11,6.06,37.77,8.51c13.29,2.58,26.53,5.35,39.72,8.4
				c12.88,2.98,25.67,6.27,38.42,9.75c6.53,1.78,13.03,3.67,19.51,5.64c6.72,2.04,13.49,4.79,20.46,5.77c1.34,0.19,2.43-1.63,1-2.38
				c-5.79-3.06-12.36-4.62-18.6-6.49c-6.18-1.85-12.37-3.62-18.57-5.38c-13.33-3.79-26.76-7.22-40.25-10.38
				c-13.18-3.09-26.43-5.9-39.74-8.33c-13.06-2.39-26.25-4.02-39.23-6.86C330.49,821.71,330.03,823.35,331.15,823.72L331.15,823.72z
				"/>
		</g>
	</g>
	<g>
		<g>
			<path class="st2" d="M558.1,825.72c-17.58-26.12-46.13-45.62-73.59-60.12c-28.28-14.93-59-25.18-90.38-31.19
				c-8.47-1.62-16.98-3-25.54-4.06c-10.11-1.25-20.75-2.54-30.84-0.54c-1.5,0.3-1.06,2.48,0.35,2.56
				c8.59,0.48,17.17,0.37,25.75,1.24c8.43,0.86,16.83,2.11,25.17,3.61c14.85,2.67,29.55,6.37,43.92,10.97
				c29.26,9.37,57.23,22.89,82.25,40.78c15.09,10.79,29.96,22.91,41.34,37.67C557.22,827.54,558.77,826.72,558.1,825.72
				L558.1,825.72z"/>
		</g>
	</g>
	<g>
		<g>
			<path class="st2" d="M478.01,710.92c-20.49,20.6-41.06,40.58-57.41,64.79c-16.06,23.78-27.42,50.61-29.86,79.4
				c-1.35,15.92-1.59,35.48,6.04,50.02c0.72,1.37,2.67,0.38,2.38-1c-2.04-9.92-4.54-19.42-5.05-29.6
				c-0.49-9.7,0.02-19.42,1.55-29.02c2.85-17.89,9.14-34.97,17.83-50.83c17.21-31.41,42.7-55.63,65.81-82.48
				C480.05,711.33,478.85,710.08,478.01,710.92L478.01,710.92z"/>
		</g>
	</g>
	<g>
		<g>
			<path class="st2" d="M340.88,700.14c10.37-6.57,20.17-13.99,30.5-20.62c5.06-3.25,10.2-6.36,15.4-9.38
				c4.92-2.85,10.88-4.97,15.04-8.87c1.01-0.94-0.06-2.42-1.27-2.18c-5.56,1.14-10.77,5.06-15.66,7.82
				c-5.49,3.11-10.89,6.38-16.21,9.78c-10.18,6.53-20.29,13.47-28.91,22.02C339.06,699.43,339.99,700.7,340.88,700.14L340.88,700.14
				z"/>
		</g>
	</g>
	<path class="st11" d="M545.88,746.42c0,0-60.7-6.69-63.43-14.41c-2.73-7.72,46.66-10.07,46.66-10.07"/>
	<g>
		<g>
			<path class="st2" d="M543.27,429.75c0.45,0,0.45-0.7,0-0.7C542.82,429.05,542.82,429.75,543.27,429.75L543.27,429.75z"/>
		</g>
	</g>
</g>
</svg>
