<?xml version="1.0" encoding="utf-8"?>
<!-- Generator: Adobe Illustrator 27.2.0, SVG Export Plug-In . SVG Version: 6.00 Build 0)  -->
<svg version="1.1" id="Layer_1" xmlns="http://www.w3.org/2000/svg" xmlns:xlink="http://www.w3.org/1999/xlink" x="0px" y="0px"
	 viewBox="0 0 542.2 81" style="enable-background:new 0 0 542.2 81;" xml:space="preserve">
<style type="text/css">
	.st0{clip-path:url(#SVGID_00000175310771965810964310000013205572288103150482_);}
	.st1{clip-path:url(#SVGID_00000175310771965810964310000013205572288103150482_);fill:#C75328;}
	.st2{clip-path:url(#SVGID_00000129896706426074618060000011241020117632491693_);}
	.st3{clip-path:url(#SVGID_00000129896706426074618060000011241020117632491693_);fill:#C75328;}
	.st4{clip-path:url(#SVGID_00000067199655326658877490000005319140057602203027_);}
	.st5{clip-path:url(#SVGID_00000067199655326658877490000005319140057602203027_);fill:#C75328;}
	.st6{fill:#C75328;}
</style>
<g>
	<defs>
		<rect id="SVGID_00000127004432598230040820000010034682690737284250_" x="56" y="-22.7" width="528" height="133.4"/>
	</defs>
	<clipPath id="SVGID_00000170252184470861604850000006304418445551000494_">
		<use xlink:href="#SVGID_00000127004432598230040820000010034682690737284250_"  style="overflow:visible;"/>
	</clipPath>
	<path style="clip-path:url(#SVGID_00000170252184470861604850000006304418445551000494_);" d="M540.9,67.1 M546.2,72.4 M535.7,72.4
		 M540.9,67.1 M536.6,72.4"/>
	<path style="clip-path:url(#SVGID_00000170252184470861604850000006304418445551000494_);fill:#C75328;" d="M139.7,35.7l-7.8-1.6
		c-2.7-0.6-3.8-1.5-3.8-3.1c-0.1-2.1,2.1-3.6,5.3-3.6c4.5,0,8.5,1.5,14,5.1l6.5-17.1c-7.2-4.1-13.1-5.7-20.8-5.7
		C116.3,9.7,104,20,104,33.9c0,9.3,6.1,16,16.3,17.8l7,1.3c3.1,0.5,4.3,1.5,4.3,3.5c0,2.4-2.3,3.9-5.8,3.9c-4.7,0-10.1-1.9-14.1-5
		l-2.6-2l-7.4,18.9c8.4,4,17,6.1,25.8,6.1c16.6,0,28.7-10,28.7-23.8C156.2,44.8,150.4,38.1,139.7,35.7"/>
	<polygon style="clip-path:url(#SVGID_00000170252184470861604850000006304418445551000494_);fill:#C75328;" points="184.5,10.7 
		160.2,10.7 160.2,77.4 204.9,77.4 204.9,55.9 184.5,55.9 	"/>
	<polygon style="clip-path:url(#SVGID_00000170252184470861604850000006304418445551000494_);fill:#C75328;" points="210.5,77.4 
		256.2,77.4 256.2,59.1 234.8,59.1 234.8,52.7 253.6,52.7 253.6,35.2 234.8,35.2 234.8,29 256.2,29 256.2,10.7 210.5,10.7 	"/>
	<polygon style="clip-path:url(#SVGID_00000170252184470861604850000006304418445551000494_);fill:#C75328;" points="261.9,77.4 
		307.6,77.4 307.6,59.1 286.2,59.1 286.2,52.7 305,52.7 305,35.2 286.2,35.2 286.2,29 307.6,29 307.6,10.7 261.9,10.7 	"/>
	<path style="clip-path:url(#SVGID_00000170252184470861604850000006304418445551000494_);fill:#C75328;" d="M345.3,10.7h-32v66.7
		h23.6V57.3h13.4c12.7,0,21.3-9,21.3-22.2C371.6,20.3,361.3,10.7,345.3,10.7 M341.1,40.5h-4.2V29h4.5c4.2,0,6.6,2.1,6.6,5.5
		C348,38.2,345.3,40.5,341.1,40.5"/>
	<polygon style="clip-path:url(#SVGID_00000170252184470861604850000006304418445551000494_);fill:#C75328;" points="374.5,77.4 
		420.2,77.4 420.2,59.1 398.8,59.1 398.8,52.7 417.6,52.7 417.6,35.2 398.8,35.2 398.8,29 420.2,29 420.2,10.7 374.5,10.7 	"/>
	<path style="clip-path:url(#SVGID_00000170252184470861604850000006304418445551000494_);fill:#C75328;" d="M521.8,35.7l-7.8-1.6
		c-2.7-0.6-3.8-1.5-3.8-3.1c-0.1-2.1,2.1-3.6,5.3-3.6c4.5,0,8.5,1.5,14,5.1l6.5-17.1c-7.2-4.1-13.1-5.7-20.8-5.7
		c-16.8,0-29.1,10.3-29.1,24.2c0,9.3,6.1,16,16.3,17.8l7,1.3c3.1,0.5,4.3,1.5,4.3,3.5c0,2.4-2.3,3.9-5.8,3.9c-4.7,0-10.1-1.9-14.1-5
		l-2.6-2l-7,17.8l-10.9-16.3c-0.8-1.2-1.5-1.8-3.5-3.1v-0.6c4.6-1.4,7-2.6,8.8-4.6c2.6-3,4.1-7.7,4.1-12.9c0-8.4-3.5-14.8-10.6-19.2
		c-4.5-2.8-8.9-3.8-16.1-3.8h-30.1v66.7h23.6V56l0.4-0.2l0.4,1.1l0.5,1l9.6,19.5h27.9l-2.9-4.4c7.9,3.5,15.9,5.4,24.2,5.4
		c16.6,0,28.7-10,28.7-23.8C538.3,44.8,532.5,38.1,521.8,35.7 M452.8,40.4h-3.3V29h4.2c3.2,0,5.5,2.5,5.5,5.8
		C459.2,38.2,456.7,40.4,452.8,40.4"/>
</g>
<g>
	<path class="st6" d="M53.9,76.9c-6.7,0.2-13.5-0.3-20.2-1.5c-5.3-1-10.6-2.5-15-5.4s-8.1-7.6-8.8-12.9s2-11.2,6.9-13.3
		c5.7-2.4,12.6,1,15.8,6.3c2.8,4.6,1.5,8.5,7.3,14.3c5.6,5.5,18.3,7.1,19.9,2.7c1.3-3.5-2.3-6.6-5.3-8.7c-5.4-3.7-10.4-8.2-13-14.2
		c-3.4-7.7-2-17.1,2.9-23.9s13-11.1,21.4-11.9c5.7-0.5,12.4,1,14.8,6.2c2,4.3,0.3,9.5-2.4,13.4s-6.4,7.1-8.9,11.1
		c-2.6,4.2-4.2,10.3-0.7,13.8c6.8,6.8,10.2-2.5,12.2-9.5c4.1-14.7,22-2.8,11.7,9.8c-3.3,4-8.3,5.7-11.8,9.4c-1.9,2-2.8,4.9-2.1,7.6
		c0.7,3.2,2.5,2.2,4.5,0.5c5.8-5.1,10.2,5.9,2,6.1c-2,0.1-5.1,0.1-6.9,0.1C69.4,76.7,62.6,77.1,53.9,76.9z"/>
</g>
</svg>
